<?xml version="1.0" encoding="UTF-8"?>
<svg id="Ebene_1" xmlns="http://www.w3.org/2000/svg" version="1.1" viewBox="0 0 400 400">
  <!-- Generator: Adobe Illustrator 29.5.1, SVG Export Plug-In . SVG Version: 2.1.0 Build 141)  -->
  <defs>
    <style>
      .st0, .st1 {
        display: none;
      }

      .st1, .st2 {
        fill: none;
        stroke: #000;
        stroke-linecap: round;
        stroke-linejoin: round;
        stroke-width: 20px;
      }
    </style>
  </defs>
  <g class="st0">
    <path class="st2" d="M198.8,102.1c0,30.7.1,61.4,0,92.2,0,5.6,1.6,10,5.7,13.9,13.4,13.1,43.3,43,51.1,51.2"/>
    <g>
      <path class="st2" d="M55.3,106.5c6.1-5.7,11.1-9.9,17.6-15.2,34.7-28.1,67-53.2,111.5-57.3,69.3-6.3,123,21.6,160.2,78.9,13.1,20.1,20,43.2,22.3,67.7,3.7,38.6-3.5,74.3-24.9,106.7-29.4,44.6-70.9,71.1-124.7,76.1-56.5,5.3-103.9-13.7-141.7-55.9-19.3-21.5-31.5-46.3-37.9-74.2-3.6-15.4-3.6-30.9-3.4-46.5"/>
      <line class="st2" x1="114.2" y1="100.9" x2="55.3" y2="106.5"/>
      <line class="st2" x1="51.2" y1="54.5" x2="55.3" y2="106.5"/>
    </g>
  </g>
  <g class="st0">
    <path class="st2" d="M122.7,210.1c-.1-9.5,1.4-18.9,4.6-27.6,3.6-9.9,9.3-19.2,16.7-26.8,8.4-8.6,19-14.8,30.3-18.7,28.4-9.7,55-3.9,77.5,16.2,20.4,18.3,28,42.1,23.8,68.7-3.1,19.7-13,36.3-29.3,48.8-16.3,12.5-37.3,17.9-57.6,15.1s-40.4-14.9-52.5-32.4c-8.8-12.8-13.3-27.9-13.5-43.4Z"/>
    <path class="st2" d="M156.5,59.1c-7.7,1.5-13.2,5.6-17.2,12.6-3.9,6.8-7.8,13.6-11.8,20.3-3.3,5.6-7.7,7.7-14,7.6-15.6-.2-31.2.1-46.8-.1-16.2-.2-30.4,14.2-30.4,30.4.2,52.4.4,104.9-.1,157.3-.2,17.8,13.6,33.7,33.7,33.6,84.7-.3,169.3-.1,254-.1,3.8,0,7.6.2,11.4-.5,15.8-2.9,27.1-15.2,27.1-31,.1-53.1.1-106.1,0-159.2,0-17.6-14.5-30.4-30.9-30.3-14.7,0-29.5-.3-44.2.1-7.6.2-12.7-2.6-16.5-9-3.7-6.3-7.6-12.6-11.3-19-5-8.8-12.1-12.7-22.2-12.7-26.7.2-53.5,0-80.2,0"/>
  </g>
  <g class="st0">
    <path class="st2" d="M260.6,292.1c11.3-7.4,15.4-17.2,16.2-29.2,1.1-16.8,9-32,21.8-44.8,13.6-13.6,25.9-27.7,32.6-44.9,14.9-38.1,7.3-72.9-20.6-104.6-20.9-23.8-49.6-37.7-83.5-42-33.6-4.2-65.9,1.4-94,18.6-28.3,17.3-46.6,40.7-53.1,70.1-7.4,33.5,1,64.2,25.9,90.9,12.4,13.3,25,26.1,30.3,43,2.3,7.3,7.8,35.8,19.6,43.5,3.4-1.4,101.5-.7,104.1-.6"/>
    <path class="st2" d="M193.8,288.2c-.3-2.4,1.1-4.7.8-7.2-.8-7.8-2.3-15.6-2.9-23.4-.8-9.6-2.2-19.2-3.4-28.8s-.4-18-4-25.8c-4.5-9.8-21.7-13.1-20.4-25.7,1-8.7,10.5-11.6,17.7-8.6,4.4,1.8,7.9,4.8,11.4,7.7,2.7,2.3,5.7,4.5,8.9,5.9s6.9,1.1,10.5-1.2c5-3.1,10-6.1,15.1-8.9,4.3-2.3,9.1-5.1,14.1-4.6,4,.3,8.1,3.2,9.8,6.9,3.1,6.9-3.8,12.5-8.7,16s-6,5.2-8.3,8.4c-7.2,10.1-7,22.3-8.4,34.2-1.6,13.5-3.3,26.9-5.7,40.2-.9,4.9.2,10-.9,14.9"/>
    <path class="st2" d="M170.2,335.7c-1,12.5,5,24.4,16.2,30.3s13.2,4.6,20.2,4.9c10,.5,21.4-.8,29.5-7.2,6-4.7,10.9-12.5,13.6-19.5s.9-4.7,1.6-7.6"/>
    <path class="st2" d="M260.6,292.8c2.3,10.5,3.1,19.9.8,29.9-2.6,11.3-14.1,11.9-23.5,12-14.6.2-29.3.6-43.9.5s-6.4,0-9.6-.1c-9.3-.2-19.6.7-26.4-6.9-4.2-4.7-4.9-10.8-4.7-16.9.2-6.1,0-12,1.8-17.9"/>
  </g>
  <path class="st1" d="M211.7,42.4l40.5,98.4,106.1,8.1c12.1.9,17,16.1,7.8,24l-81,68.9,25.1,103.4c2.9,11.8-10,21.2-20.4,14.8l-90.6-55.8-90.6,55.8c-10.4,6.4-23.2-3-20.4-14.8l25.1-103.4-81-68.9c-9.3-7.9-4.3-23,7.8-24l106.1-8.1,40.5-98.4c4.6-11.2,20.6-11.2,25.2,0Z"/>
  <g class="st0">
    <path class="st2" d="M206.3,261.9c-15,16.2-58.9,60.7-68.7,64.5-7.1,2.7-78.7,36.5-80,36.9-10.5,3.6-18.2-5.1-14.2-15.7,8.6-22.9,15.4-46.6,25.3-68.9,5.1-11.6,123.4-138.5,175.4-190.5,14.5-14.6,27.3-30.9,42.6-44.6,10.3-9.2,28.9-13.1,42.2,1,8.2,8.7,16.8,17.2,25,25.8,11.1,11.6,11.9,20.9,2.6,34.9-8.3,12.5-116.5,120-150.4,156.6Z"/>
    <path class="st2" d="M259.1,77.6c16.4,16.9,57.5,57.6,61.6,61.4"/>
    <path class="st2" d="M73.2,271.6c12.1,12.1,55.8,43.4,64.9,52.1"/>
  </g>
  <g class="st0">
    <path class="st2" d="M277.8,104.3c19.8-.1,39.6.1,59.5-.1,15.8-.2,26.9,8.9,26.7,25.6-.5,69.4-.2,138.8-.2,208.2s-8.6,24-24.9,24c-57.9,0-115.7,0-173.6,0-17.2,0-26.5-9-26.5-25.5s-.1-18.1,0-27.1c.1-6.1.4-132.1-.4-181.1-.2-12,10.5-24.4,25.2-24.1,25.2.4,50.4,0,75.5.2,7.1,0,32.3,0,38.6,0Z"/>
    <path class="st2" d="M259.3,99.6c0-12.1-.2-24.3,0-36.4.3-16.5-13.3-27.7-28.2-27.4-45,.9-90,.3-135,.3-8.6,0-17.1-.6-25.7-.9-20.7-.7-31.5,7.2-31.2,30.3.2,15.7.7,31.5.7,47.2,0,52.1,0,104.2,0,156.3,0,14.6,8.9,23.2,24.1,23.2,23.3,0,46.6,0,69.9,0"/>
  </g>
  <g class="st0">
    <path class="st2" d="M196.3,100.4v200.4"/>
    <path class="st2" d="M87.6,158.7c4.7,12.8,18.9,46.5,27.7,63.1-13.1,25.1-49.1,48.8-50.6,49.9"/>
    <path class="st2" d="M144.8,135c-3,16.6-4.8,29.6-9.1,43.1-5.3,16.4-12.1,30.9-20.5,43.7,15.5,27.2,41.1,52.4,43.4,54.4"/>
    <path class="st2" d="M66.4,130.8c4.5,0,94.7-.3,96.9-.3"/>
    <path class="st2" d="M117,32.2c-4.5,1-9.1.2-13.6.5-12.2.8-24.1,2.3-35.5,7.6-19.9,9.3-30.7,25.4-35.3,46.1-2.1,9.2-2.8,18.7-2.8,28.2,0,58.2-.2,116.4.1,174.6,0,15.9,2.7,31.6,11.7,45.5,8.6,13.3,20.7,21.9,35.9,26.5,10.6,3.2,21.4,3.9,32.3,4,58.2.1,116.4.2,174.6,0,13,0,25.9-1.3,38.2-6.3,21.6-8.8,33.5-25.3,38.2-47.7,1.8-8.7,2.1-17.6,2.2-26.4.1-57.9,0-115.8,0-173.7,0-12.2-.9-24.5-5.5-35.9-9.4-23-26.7-36.3-51.3-40.6-10-1.8-20-2-30-2-52.9-.2-105.8-.1-158.7-.1"/>
    <g>
      <line class="st2" x1="306.8" y1="223.3" x2="251.8" y2="223.3"/>
      <polyline class="st2" points="227.6 277.9 275.2 123.4 327.4 277.9"/>
    </g>
  </g>
  <g class="st0">
    <g>
      <path class="st2" d="M77.6,274.2c5.6-.6,152.2-1,168.3-1.6,23.7-.8,46.8-2.8,67.5-15.3,16.9-10.2,29.2-26.8,28.2-47.3"/>
      <polyline class="st2" points="112 231.5 73.9 274.2 112 315.8"/>
    </g>
    <g>
      <path class="st2" d="M337.9,121.7c-5.6.6-152.2,1-168.3,1.6-23.7.8-46.8,2.8-67.5,15.3-16.9,10.2-29.2,26.8-28.2,47.3"/>
      <polyline class="st2" points="303.5 164.4 341.6 121.7 303.5 80"/>
    </g>
  </g>
  <g class="st0">
    <path class="st2" d="M114.1,270.6c-6.2,0-15.2.2-21.5,0-14-.7-25-.9-42.1-1.7s-15-10.9-15-22.1c0-32.2.3-64.4-.2-96.5-.2-12,5.5-24.2,19.7-24.7,15.8-.6,31.6-.3,47.3,0,8.1.1,11.2,3.8,11.2,13.7.2,39.8-1.7,81.5,0,119.5s0,5.8.6,9.3c11.3,11.4,17.6,20.5,27.9,30.2,21.1,19.9,42.6,39.2,63.8,58.9,4.2,3.9,8.3,7.4,13.5,4.4,5.2-3,5.3-9.4,5.3-15.5,0-98.1,0-196.1,0-294.2s.2-3.7,0-5.5c-1.5-10.7-7.5-14.2-14.9-8.2-14,11.4-27.1,24.5-40.6,36.7-19.5,17.5-38.7,35.3-57.9,53.3"/>
    <path class="st2" d="M280.1,134.6c26.4,42.8,26.4,85.6,0,128.5"/>
    <path class="st2" d="M311.3,105c38.5,62.6,38.5,125.2,0,187.8"/>
  </g>
  <g class="st0">
    <circle class="st2" cx="303.9" cy="314.5" r="52.1"/>
    <circle class="st2" cx="304.6" cy="82.2" r="52.1"/>
    <circle class="st2" cx="92.8" cy="198.4" r="52.1"/>
    <line class="st2" x1="139.1" y1="169" x2="256.2" y2="101.4"/>
    <line class="st2" x1="256.2" y1="293.6" x2="139.1" y2="222.2"/>
  </g>
  <g>
    <g>
      <path class="st2" d="M298.5,299.4c-4.9,0-8.1.3-11.9.3-55.9,0-111.8,0-167.6,0-7.8,0-15.8-.2-23.6-.1"/>
      <path class="st2" d="M296.4,171.3c-4.5,0-6.5,0-9.8,0-54.1-.7-181.3-1.1-190.8-.9"/>
      <path class="st2" d="M296.4,235.1c-20.2-1-40.4-.4-60.6-.4-46.7-.1-93.3,0-140,0"/>
      <path class="st2" d="M229.5,106.2H95.7"/>
    </g>
    <path class="st2" d="M76.5,41.1h183.4c6.6,0,13,2.6,17.7,7.3l65.1,65.1c4.7,4.7,7.3,11,7.3,17.7v204.3c0,13.8-11.2,25-25,25H76.5c-13.8,0-25-11.2-25-25V66.1c0-13.8,11.2-25,25-25Z"/>
    <path class="st2" d="M270.2,43.4v50.2c0,13.8,11.2,25,25,25l50.9.5"/>
  </g>
  <g class="st0">
    <g>
      <path class="st2" d="M74.2,132.8c1.6,19.7,14.1,172.6,14.7,190.8.7,19.4,8.5,31.5,25.7,33.1s115.5.3,168.2,1.1c20.6.3,40.2-8.5,41.5-34.1,1.7-34.5,5.3-68.9,7.9-103.3,2-26.5,6.6-84.8,6.6-87.5"/>
      <path class="st2" d="M285.6,73.6c-.8-6.6,1.1-13.2-2.5-19.8-3.8-7-9.7-10-17.7-10-39.5-.2-79.1-.2-118.6,0-13.2,0-20.8,6.7-21.1,18.1-.1,3.9,0,7.9,0,11.8"/>
      <path class="st2" d="M266.3,165.1c.2,44.5.5,140.9.5,145.8"/>
      <path class="st2" d="M146.8,165.1v145.8"/>
      <path class="st2" d="M206.6,165.1v145"/>
    </g>
    <rect class="st2" x="47.5" y="83.4" width="311.2" height="43.7" rx="18.5" ry="18.5"/>
  </g>
  <g class="st0">
    <g>
      <path class="st2" d="M337.5,110.8c-14.9-18.5-30.9-35.8-51.6-48.2-20.6-12.3-42.7-19.5-66.4-21.7-23.3-2.2-45.8,1.2-67.8,9.3-34.7,12.9-61.3,35.4-80.1,67.1-14.8,25.1-21.7,52.5-21.9,81.6,0,5.6,0,11.2,0,16.8"/>
      <path class="st2" d="M362.9,191c1.3,40.1-10,76.2-35,107.8-26.7,33.7-61.5,53.5-104.1,58.1-45.8,4.9-86.2-8.1-120.2-39.8-10.7-10-19.2-21.6-28.4-32.8"/>
    </g>
    <polyline class="st2" points="75.1 352.3 75.1 283.9 146 283.9"/>
    <polyline class="st2" points="337.5 42.5 337.5 110.9 266.6 110.9"/>
  </g>
  <g class="st0">
    <path class="st2" d="M138.9,107.7c-13.4,0-26.8.2-40.2,0-13.3-.3-22.1,11.3-22.1,22,.3,69.7.3,139.4,0,209.1,0,13.6,11.2,24.4,24.2,24.3,73-.5,146-.4,219,0,12.9,0,24.2-10.8,24.2-24.3-.2-69.7-.2-139.4,0-209.1,0-11.9-9.8-22.4-22-21.9-2,0-4,0-6,0"/>
    <path class="st2" d="M276.6,91.8c1.9,3.6,2.4,29.7,1.8,38.9-.4,6.2-3.1,9.5-8.4,11.5-10.4,4-98.8,6.6-114.4,2-11-3.2-14.9-7.6-14.4-19.5.3-5.3,0-27.4,2.3-32.8"/>
    <path class="st2" d="M303.4,192.5c-34.5,0-69,0-103.5,0-1.8,0-3.7-.4-5.5.3"/>
    <path class="st2" d="M303.4,308.6c-29.2,1.1-58.4.3-87.6.5-6.9,0-13.9.3-20.8-.5"/>
    <path class="st2" d="M303.4,250.6c-36.1,1.2-72.3.2-108.4.5"/>
    <polyline class="st2" points="116.1 189.4 129.8 203.2 160.6 172.5"/>
    <polyline class="st2" points="116.1 248 129.8 261.8 160.6 231.1"/>
    <polyline class="st2" points="116.1 305 129.8 318.8 160.6 288"/>
    <polyline class="st2" points="93.9 74.1 118.4 73.5 209.2 115.8 305.2 72 210.1 32.3 118.4 73.5"/>
    <line class="st2" x1="305.2" y1="72" x2="305.2" y2="136.9"/>
  </g>
  <g class="st0">
    <g>
      <path class="st2" d="M246.7,188.5c4.7,9.9,18.9,36.2,27.7,49.1-13.1,19.6-49.1,38-50.6,38.9"/>
      <path class="st2" d="M303.9,170.1c-3,12.9-4.8,23-9.1,33.5-5.3,12.8-12.1,24-20.5,34,15.5,21.2,41.1,40.8,43.4,42.3"/>
      <path class="st2" d="M225.5,166.8c4.5,0,94.7-.3,96.9-.2"/>
    </g>
    <g>
      <line class="st2" x1="177.6" y1="212.5" x2="122.5" y2="212.5"/>
      <polyline class="st2" points="98.3 258 145.9 129.4 198.1 258"/>
    </g>
    <path class="st2" d="M259.5,82.1v-27c0-13.8-11.2-25-25-25H74.5c-13.8,0-25,11.2-25,25v223.3c0,13.8,11.2,25,25,25h77.6"/>
    <path class="st2" d="M159.7,110.5v-3.5c0-13.8,11.2-25,25-25h154.3c13.8,0,25,11.2,25,25v232.1c0,13.8-11.2,25-25,25h-155.9c-13.8,0-25-11.2-25-25v-72.3"/>
  </g>
  <g class="st0">
    <rect class="st2" x="38.5" y="87.2" width="264.7" height="278.8" rx="25" ry="25"/>
    <circle class="st2" cx="123.3" cy="175.6" r="25.8"/>
    <path class="st2" d="M38.5,319.1l54.8-49.1c9.6-8.6,24.2-8.5,33.7.3l43.8,40.7"/>
    <path class="st2" d="M141.9,278.3l54.4-52.5c9.6-9.2,24.6-9.3,34.4-.3l69.3,64.4"/>
    <path class="st2" d="M98.1,87.2v-35.8c0-13.8,11.2-25,25-25h214.4c13.8,0,25,11.2,25,25v226.4c0,13.8-11.2,25-25,25h-34.3"/>
  </g>
  <g class="st0">
    <g>
      <path class="st2" d="M334.8,87.1c-6,.3-12,.2-18,.2-30.3,0-60.6,0-90.9,0"/>
      <path class="st2" d="M333.5,123.8c-32.8,0-65.6,0-98.4,0-2.7,0-5.2,1-7.9.3"/>
      <path class="st2" d="M187.6,308.2c-3.8-4.9-8.8-8.6-13.4-12.6-2.5-2.2-5.1-4.6-6.3-7.8-.2-.6-.4-1-1.2-1.2-5.4-1.8-8.6-6.2-12.3-10.2-6.7-7.2-13.2-14.6-20.4-21.3-7.5-6.9-16.4-8-24.5,0-2.4,2.4-5,4.7-7.4,7.1-15.4,15.4-30.8,30.7-46.5,45.6-4.6,4.4-9,9.2-15.7,10.7-.5.1-1,0-1.6,0"/>
    </g>
    <path class="st2" d="M286.9,191.2v134.9c0,13.8-11.2,25-25,25H60.2c-13.8,0-25-11.2-25-25v-196.5c0-13.8,11.2-25,25-25h118.8"/>
    <ellipse class="st2" cx="107.3" cy="189.5" rx="25.4" ry="23.7"/>
    <path class="st2" d="M41.5,322.5l67.1-68.7c7.1-5.9,17.9-5.8,24.9.2l53.3,53.1"/>
    <path class="st2" d="M161,292.8l36.6-36.9c7.1-6.4,18.2-6.5,25.4-.2l64.2,62.8"/>
    <path class="st2" d="M207,178.6c-15.4-10.9-25.5-28.8-25.5-48.9v-32.3c0-32.9,26.9-59.8,59.8-59.8h74.7c32.9,0,59.8,26.9,59.8,59.8v32.3c0,32.9-26.9,59.8-59.8,59.8h-55.8l-44,29.5-9.2-40.4h0Z"/>
  </g>
  <g class="st0">
    <g>
      <path class="st2" d="M53.5,251.4c-16-20.4-25.5-46-25.5-73.9,0-66.2,53.6-119.8,119.8-119.8s119.8,53.6,119.8,119.8-53.6,119.8-119.8,119.8-28.6-2.6-41.5-7.4"/>
      <path class="st2" d="M305.8,328.2c-16.1,8.1-34.3,12.6-53.6,12.6-38,0-69.3-15.9-91.3-43.5"/>
      <path class="st2" d="M241.9,101.6c3.4-.3,6.9-.4,10.3-.4,66.2,0,119.8,53.6,119.8,119.8,0,27.9-9.5,53.6-25.5,73.9"/>
    </g>
    <polyline class="st2" points="53.6 251.5 40.4 307.8 106.2 289.9"/>
    <polyline class="st2" points="346.6 294.8 360.6 342.3 305.7 328.2"/>
  </g>
  <g class="st0">
    <g>
      <line class="st2" x1="42.3" y1="345" x2="136.5" y2="250.9"/>
      <line class="st2" x1="43.2" y1="55.4" x2="137.4" y2="149.6"/>
      <line class="st2" x1="351.9" y1="56.3" x2="257.8" y2="150.4"/>
      <line class="st2" x1="351" y1="345.9" x2="256.9" y2="251.8"/>
    </g>
    <polyline class="st2" points="351.9 136.2 351.9 55.4 270.6 55.4"/>
    <polyline class="st2" points="123.9 55.1 43.2 55.1 43.2 136.4"/>
    <polyline class="st2" points="42.3 264.3 42.3 345 123.6 345"/>
    <polyline class="st2" points="270.3 345.9 351 345.9 351 264.6"/>
  </g>
  <g class="st0">
    <g>
      <path class="st2" d="M168.4,191.9c-31,.2-62-.5-93,.5"/>
      <path class="st2" d="M116.8,32.3c-4.8,1-9.7.2-14.5.5-12.2.6-24.3,2.3-35.3,7.8-18.8,9.5-29.1,25.6-33.5,45.7-2,9.2-2.8,18.6-2.8,28.1,0,58.3-.2,116.7.1,175,.1,16.9,3.1,33.5,13.5,47.6,11.6,15.5,27.5,23.6,46.6,26,10.4,1.3,20.9,1.2,31.3,1.2,54.4,0,108.8.1,163.2,0,13,0,25.9-1.7,38.1-6.7,18.1-7.4,29.5-21,35.3-39.4,3-9.6,4.1-19.5,4.1-29.5,0-60.2.1-120.3,0-180.5,0-12.6-1.7-24.9-6.7-36.7-6.8-16.2-18.7-26.9-35-33.1-10.1-3.9-20.6-5.2-31.3-5.4-57.6-1-115.2-.2-172.8-.4"/>
      <g>
        <line class="st2" x1="283.7" y1="221.1" x2="228.7" y2="221.1"/>
        <polyline class="st2" points="204.4 275.7 252.1 121.2 304.3 275.7"/>
      </g>
    </g>
    <polyline class="st2" points="130 153.4 168.4 191.9 130 230.3"/>
  </g>
</svg>